<?xml version="1.0" encoding="UTF-8" standalone="no"?>
<!-- http://code.google.com/p/vector-playing-cards/ -->

<svg
   width="167.0869141pt"
   height="242.6669922pt"
   viewBox="0 0 167.0869141 242.6669922"
   xml:space="preserve"
   id="svg2"
   version="1.1"
   inkscape:version="0.48.0 r9654"
   sodipodi:docname="blackJoker.svg"
   inkscape:export-filename="/home/byron/art/cards/final/PNGs/black_joker.png"
   inkscape:export-xdpi="215.44792"
   inkscape:export-ydpi="215.44792"
   xmlns:inkscape="http://www.inkscape.org/namespaces/inkscape"
   xmlns:sodipodi="http://sodipodi.sourceforge.net/DTD/sodipodi-0.dtd"
   xmlns="http://www.w3.org/2000/svg"
   xmlns:svg="http://www.w3.org/2000/svg"
   xmlns:rdf="http://www.w3.org/1999/02/22-rdf-syntax-ns#"
   xmlns:cc="http://creativecommons.org/ns#"
   xmlns:dc="http://purl.org/dc/elements/1.1/"><metadata
   id="metadata43"><rdf:RDF><cc:Work
       rdf:about=""><dc:format>image/svg+xml</dc:format><dc:type
         rdf:resource="http://purl.org/dc/dcmitype/StillImage" /><dc:title /></cc:Work></rdf:RDF></metadata><defs
   id="defs41" /><sodipodi:namedview
   pagecolor="#ffffff"
   bordercolor="#666666"
   borderopacity="1"
   objecttolerance="10"
   gridtolerance="10"
   guidetolerance="10"
   inkscape:pageopacity="0"
   inkscape:pageshadow="2"
   inkscape:window-width="1680"
   inkscape:window-height="977"
   id="namedview39"
   showgrid="false"
   inkscape:zoom="2.4336873"
   inkscape:cx="117.85966"
   inkscape:cy="152.384"
   inkscape:window-x="0"
   inkscape:window-y="25"
   inkscape:window-maximized="1"
   inkscape:current-layer="svg2"
   inkscape:pagecheckerboard="0"
   inkscape:document-units="pt" />
	<g
   id="Layer_x0020_1"
   style="clip-rule:nonzero;fill-rule:nonzero;stroke:#000000;stroke-miterlimit:4">
		<path
   style="fill:#ffffff;stroke-width:0.5"
   d="m 166.83691,235.54785 c 0,3.77735 -3.08691,6.86914 -6.87109,6.86914 H 7.1108398 C 3.3359375,242.41699 0.25,239.3252 0.25,235.54785 V 7.1201172 C 0.25,3.3427734 3.3359375,0.25 7.1108398,0.25 H 159.96582 c 3.78418,0 6.87109,3.0927734 6.87109,6.8701172 z"
   id="path5" />
		<g
   style="stroke:none"
   id="g7">
			<g
   id="g9">
				
			</g>
			
		</g>
		<g
   id="g15">
			
		</g>
		<g
   id="g19">
			
		</g>
		<g
   style="stroke:none"
   id="g23">
			<g
   id="g25">
				
			</g>
			
		</g>
		<g
   style="stroke:none"
   id="g31">
			<g
   id="g33">
				
			</g>
			
		</g>
	</g>
<g
   aria-label="J"
   id="text3788"
   style="line-height:0%;font-family:'Bitstream Vera Sans';letter-spacing:0px;word-spacing:0px"><path
     d="m 11.554007,4.0277233 h 6.015625 l -4.21875,21.0624997 q -0.875,4.359375 -3.6718754,6.515625 -2.796875,2.15625 -7.59375,2.15625 H 0.86650658 L 1.7727566,29.215223 h 0.9375 q 1.875,0 3.046875,-1.046875 1.171875,-1.046875 1.578125,-3.078125 z"
     style="font-style:italic;font-weight:bold;font-size:32px;line-height:1.25;font-family:LMMathSymbols9;-inkscape-font-specification:'LMMathSymbols9 Bold Italic'"
     id="path44" /></g>







<g
   transform="matrix(2.2711763,2.2711763,-2.0765626,2.0765626,117.0668,94.436511)"
   id="layer1-7-88"><path
     id="sl-4"
     d="M 7.989,3.103 C 7.747,-0.954 0.242,-8.59 0,-10.5 c -0.242,1.909 -7.747,9.545 -7.989,13.603 -0.169,2.868 1.695,4.057 3.39,4.057 1.8351685,-0.021581 3.3508701,-2.8006944 3.873,-3.341 0.242,0.716 -1.603,6.682 -2.179,6.682 H 2.906 C 2.33,10.501 0.485,4.535 0.727,3.819 1.1841472,4.3152961 2.5241276,7.0768295 4.601,7.16 6.295,7.159 8.158,5.971 7.989,3.103 Z"
     inkscape:connector-curvature="0"
     style="fill:#000000"
     sodipodi:nodetypes="cccccccccc" /></g>

<g
   aria-label="o"
   id="text3019"
   style="line-height:0%;font-family:'Bitstream Vera Sans';letter-spacing:0px;word-spacing:0px"><path
     d="m 18.058951,33.268922 c -1.536,0 -3.9936,1.1136 -6.2592,2.8032 -2.4576001,1.8432 -4.1856002,5.836801 -4.1856002,9.676801 0,2.304 1.3056001,3.8016 3.3408002,3.8016 1.0752,0 2.1888,-0.384 3.9168,-1.3056 1.92,-1.0752 3.1872,-2.0352 3.8784,-2.9184 1.536,-2.112 2.7648,-5.8752 2.7648,-8.524801 0,-2.0736 -1.4208,-3.5328 -3.456,-3.5328 z m -1.9968,1.8048 c 1.536,0 2.496,1.4592 2.496,3.801601 0,1.6512 -0.5376,3.6096 -1.4592,5.4912 -1.1136,2.1888 -2.496,3.3792 -3.9552,3.3792 -1.5744,0 -2.5728,-1.4208 -2.5728,-3.6096 0,-4.4544 2.8032,-9.062401 5.4912,-9.062401 z"
     style="font-style:italic;font-weight:bold;font-size:38.4px;line-height:1.25;font-family:'URW Chancery L';-inkscape-font-specification:'URW Chancery L Bold Italic'"
     id="path47" /></g>



<g
   aria-label="k"
   id="text3023"
   style="line-height:0%;font-family:'Bitstream Vera Sans';letter-spacing:0px;word-spacing:0px"><path
     d="m 5.9705549,77.414862 c 0.4224,-0.1536 0.8064,-0.3072 0.9216001,-0.3456 0.2304,-0.0768 0.6144,-0.192 1.0368,-0.3456 0.1152,-0.0384 0.4608,-0.1536 0.8448,-0.2688 l 1.4976,-6.8352 0.8832,-0.5376 c 0.768,1.7664 0.9216,2.112 2.1504,4.992 1.6512,3.9168 2.6496,5.4912 4.224,6.72 1.6512,1.2672 4.032001,2.0736 6.067201,2.0736 1.7664,0 2.9952,-0.384 4.1856,-1.344 l -0.768,-2.7648 c -1.2288,2.0736 -2.3424,2.88 -3.9552,2.88 -1.2672,0 -2.304,-0.6144 -3.494401,-2.0352 -1.0368,-1.2288 -1.0368,-1.2288 -5.1456,-9.9456 l -1.1136,-2.3808 2.5728,-2.3424 c 1.536,-1.344 1.9584,-1.6128 2.688,-1.6128 0.6528,0 1.1136,0.3072 1.728,1.1136 l 1.958401,-2.9184 c -0.768,-0.576 -1.3056,-0.768 -2.150401,-0.768 -1.0368,0 -1.6896,0.3456 -2.8416,1.4208 -1.1904,1.152 -1.2288,1.1904 -1.6512,1.5744 l -4.9536,4.416 1.4592,-5.8752 c 1.2288,-5.068801 1.6512,-6.297601 2.304,-7.372801 0.6912,-1.1136 1.6896,-1.6512 2.9952,-1.6512 0.3456,0 0.6528,0.0384 1.344,0.1536 l 1.536,-2.2272 c -0.4992,-0.0768 -0.7296,-0.1152 -1.1136,-0.1152 -1.3824,0 -2.2656,0.3072 -3.4944,1.1904 -2.4576,1.728 -4.1856,3.4176 -4.6848,4.5312 -0.384,0.8448 -1.1135999,3.3792 -1.6127999,5.606401 z"
     style="font-style:italic;font-weight:bold;font-size:38.4px;line-height:1.25;font-family:'URW Chancery L';-inkscape-font-specification:'URW Chancery L Bold Italic'"
     id="path50" /></g>



<g
   aria-label="e"
   id="text3027"
   style="line-height:0%;font-family:'Bitstream Vera Sans';letter-spacing:0px;word-spacing:0px"><path
     d="m 17.221756,94.084582 c -3.072,2.611201 -4.7232,3.571201 -6.1824,3.571201 -0.9984,0 -1.7664005,-0.6528 -2.0352005,-1.6512 -0.1536,-0.6144 -0.192,-1.0368 -0.192,-2.150401 1.7664005,-1.1136 2.8416005,-1.8816 5.1072005,-3.5712 2.112,-1.5744 2.88,-2.8416 2.88,-4.5696 0,-1.344 -0.8064,-2.1504 -2.1888,-2.1504 -0.8448,0 -1.4208,0.192 -2.3424,0.6912 -1.4592,0.8448 -2.7648005,1.8816 -3.5328005,2.8032 -1.4592001,1.7664 -2.7648001,5.9904 -2.7648001,9.100801 0,2.2656 1.1904,3.6864 3.1488001,3.6864 2.2656005,0 5.1840005,-1.6896 8.0640005,-4.6464 z m -8.2944005,-1.6128 c 0.6528,-4.1472 2.3808005,-7.296 4.0704005,-7.296 0.6144,0 1.0368,0.6144 1.0368,1.5744 0,1.92 -1.1136,3.1488 -5.1072005,5.7216 z"
     style="font-style:italic;font-weight:bold;font-size:38.4px;line-height:1.25;font-family:'URW Chancery L';-inkscape-font-specification:'URW Chancery L Bold Italic'"
     id="path53" /></g>



<g
   aria-label="r"
   id="text3031"
   style="line-height:0%;font-family:'Bitstream Vera Sans';letter-spacing:0px;word-spacing:0px"><path
     d="m 5.757036,120.7674 2.9568001,-1.1136 2.8799999,-10.944 c 1.3056,-0.9984 2.1888,-1.344 3.2256,-1.344 0.8448,0 1.344,0.3072 2.0352,1.1904 l 1.152001,-3.648 c -0.691201,-0.2304 -1.036801,-0.3072 -1.420801,-0.3072 -0.7296,0 -1.4976,0.3456 -2.5344,1.0752 -0.4992,0.384 -0.9984,0.768 -1.536,1.1136 -0.2304,0.192 -0.4992,0.384 -0.7296,0.5376 l 0.4608,-2.304 c 0,-0.2304 -0.2304,-0.4224 -0.4992,-0.4224 -0.4992,0 -3.8783999,1.6512 -6.2208,3.0336 l -0.1152,1.0368 c 2.2272001,-1.0752 2.2656001,-1.1136 2.7648001,-1.1136 0.4992,0 0.7296,0.2688 0.7296,0.8064 0,0.5376 -0.384,2.304 -0.8448,3.9936 z"
     style="font-style:italic;font-weight:bold;font-size:38.4px;line-height:1.25;font-family:'URW Chancery L';-inkscape-font-specification:'URW Chancery L Bold Italic'"
     id="path56" /></g>



<g
   transform="matrix(2.374378,-2.374378,2.2221918,2.2221918,59.383523,95.635421)"
   id="layer1-9"><path
     style="fill:#df0000"
     inkscape:connector-curvature="0"
     id="hl"
     d="M 3.676,-9 C 0.433,-9 0,-5.523 0,-5.523 0,-5.523 -0.433,-9 -3.676,-9 -5.946,-9 -8,-7.441 -8,-4.5 -8,-0.614 -1.4208493,3.2938141 0,9 1.35201,3.2985969 8,-0.614 8,-4.5 8,-7.441 5.946,-9 3.676,-9 Z"
     sodipodi:nodetypes="scsscss" /></g><g
   transform="matrix(-2.145754,-2.145754,2.145754,-2.145754,110.19878,305.77847)"
   id="layer1-1"><path
     id="cl"
     d="m 50.291466,22.698228 c 0,0 2.375,-1.9 2.375,-4.534 0,-1.542 -1.369,-4.102 -4.534,-4.102 -3.165,0 -4.534,2.561 -4.534,4.102 0,2.634 2.375,4.534 2.375,4.534 -2.638,-2.055 -7.341,-0.652 -7.341,3.455 0,2.056 1.68,4.318 4.318,4.318 3.165,0 4.534,-3.455 4.534,-3.455 0,0 0.402,3.938 -1.943,6.046 h 5.182 c -2.345,-2.107 -1.943,-6.046 -1.943,-6.046 0,0 1.369,3.455 4.534,3.455 2.639,0 4.318,-2.263 4.318,-4.318 0,-4.107 -4.703,-5.51 -7.341,-3.455 z"
     inkscape:connector-curvature="0"
     style="fill:#000000" /></g><g
   transform="matrix(2.235014,-2.235014,2.235014,2.235014,117.78936,156.16707)"
   id="layer1-2"><path
     style="fill:#df0000"
     inkscape:connector-curvature="0"
     id="dl"
     d="M 3.2433274,-4.7253274 C 1.1263274,-7.5893274 0,-10.5 0,-10.5 c 0,0 -1.1263274,2.9106726 -3.2433274,5.7746726 C -5.3613274,-1.8623274 -8,0 -8,0 -8,0 -5.3613274,1.8613274 -3.2433274,4.7263274 -1.1263274,7.5893274 0,10.5 0,10.5 0,10.5 1.1263274,7.5893274 3.2433274,4.7263274 5.3613274,1.8613274 8,0 8,0 8,0 5.3613274,-1.8623274 3.2433274,-4.7253274 Z"
     sodipodi:nodetypes="ccccccccc" /></g>









<g
   aria-label="J"
   transform="scale(-1)"
   id="text3788-8"
   style="line-height:0%;font-family:'Bitstream Vera Sans';letter-spacing:0px;word-spacing:0px"><path
     d="m -156.10661,-238.33008 h 6.01562 l -4.21875,21.0625 q -0.875,4.35938 -3.67187,6.51563 -2.79688,2.15625 -7.59375,2.15625 h -1.21875 l 0.90625,-4.54688 h 0.9375 q 1.875,0 3.04687,-1.04687 1.17188,-1.04688 1.57813,-3.07813 z"
     style="font-style:italic;font-weight:bold;font-size:32px;line-height:1.25;font-family:LMMathSymbols9;-inkscape-font-specification:'LMMathSymbols9 Bold Italic'"
     id="path59" /></g>

<g
   aria-label="o"
   transform="scale(-1)"
   id="text3019-4"
   style="line-height:0%;font-family:'Bitstream Vera Sans';letter-spacing:0px;word-spacing:0px"><path
     d="m -149.60167,-209.08887 c -1.536,0 -3.9936,1.1136 -6.2592,2.8032 -2.4576,1.8432 -4.1856,5.8368 -4.1856,9.6768 0,2.304 1.3056,3.8016 3.3408,3.8016 1.0752,0 2.1888,-0.384 3.9168,-1.3056 1.92,-1.0752 3.1872,-2.0352 3.8784,-2.9184 1.536,-2.112 2.7648,-5.8752 2.7648,-8.5248 0,-2.0736 -1.4208,-3.5328 -3.456,-3.5328 z m -1.9968,1.8048 c 1.536,0 2.496,1.4592 2.496,3.8016 0,1.6512 -0.5376,3.6096 -1.4592,5.4912 -1.1136,2.1888 -2.496,3.3792 -3.9552,3.3792 -1.5744,0 -2.5728,-1.4208 -2.5728,-3.6096 0,-4.4544 2.8032,-9.0624 5.4912,-9.0624 z"
     style="font-style:italic;font-weight:bold;font-size:38.4px;line-height:1.25;font-family:'URW Chancery L';-inkscape-font-specification:'URW Chancery L Bold Italic'"
     id="path62" /></g>

<g
   aria-label="k"
   transform="scale(-1)"
   id="text3023-1"
   style="line-height:0%;font-family:'Bitstream Vera Sans';letter-spacing:0px;word-spacing:0px"><path
     d="m -161.69005,-164.94293 c 0.4224,-0.1536 0.8064,-0.3072 0.9216,-0.3456 0.2304,-0.0768 0.6144,-0.192 1.0368,-0.3456 0.1152,-0.0384 0.4608,-0.1536 0.8448,-0.2688 l 1.4976,-6.8352 0.8832,-0.5376 c 0.768,1.7664 0.9216,2.112 2.1504,4.992 1.6512,3.9168 2.6496,5.4912 4.224,6.72 1.6512,1.2672 4.032,2.0736 6.0672,2.0736 1.7664,0 2.9952,-0.384 4.1856,-1.344 l -0.768,-2.7648 c -1.2288,2.0736 -2.3424,2.88 -3.9552,2.88 -1.2672,0 -2.304,-0.6144 -3.4944,-2.0352 -1.0368,-1.2288 -1.0368,-1.2288 -5.1456,-9.9456 l -1.1136,-2.3808 2.5728,-2.3424 c 1.536,-1.344 1.9584,-1.6128 2.688,-1.6128 0.6528,0 1.1136,0.3072 1.728,1.1136 l 1.9584,-2.9184 c -0.768,-0.576 -1.3056,-0.768 -2.1504,-0.768 -1.0368,0 -1.6896,0.3456 -2.8416,1.4208 -1.1904,1.152 -1.2288,1.1904 -1.6512,1.5744 l -4.9536,4.416 1.4592,-5.8752 c 1.2288,-5.0688 1.6512,-6.2976 2.304,-7.3728 0.6912,-1.1136 1.6896,-1.6512 2.9952,-1.6512 0.3456,0 0.6528,0.0384 1.344,0.1536 l 1.536,-2.2272 c -0.4992,-0.0768 -0.7296,-0.1152 -1.1136,-0.1152 -1.3824,0 -2.2656,0.3072 -3.4944,1.1904 -2.4576,1.728 -4.1856,3.4176 -4.6848,4.5312 -0.384,0.8448 -1.1136,3.3792 -1.6128,5.6064 z"
     style="font-style:italic;font-weight:bold;font-size:38.4px;line-height:1.25;font-family:'URW Chancery L';-inkscape-font-specification:'URW Chancery L Bold Italic'"
     id="path65" /></g>

<g
   aria-label="e"
   transform="scale(-1)"
   id="text3027-9"
   style="line-height:0%;font-family:'Bitstream Vera Sans';letter-spacing:0px;word-spacing:0px"><path
     d="m -150.43885,-148.27321 c -3.072,2.6112 -4.7232,3.5712 -6.1824,3.5712 -0.9984,0 -1.7664,-0.6528 -2.0352,-1.6512 -0.1536,-0.6144 -0.192,-1.0368 -0.192,-2.1504 1.7664,-1.1136 2.8416,-1.8816 5.1072,-3.5712 2.112,-1.5744 2.88,-2.8416 2.88,-4.5696 0,-1.344 -0.8064,-2.1504 -2.1888,-2.1504 -0.8448,0 -1.4208,0.192 -2.3424,0.6912 -1.4592,0.8448 -2.7648,1.8816 -3.5328,2.8032 -1.4592,1.7664 -2.7648,5.9904 -2.7648,9.1008 0,2.2656 1.1904,3.6864 3.1488,3.6864 2.2656,0 5.184,-1.6896 8.064,-4.6464 z m -8.2944,-1.6128 c 0.6528,-4.1472 2.3808,-7.296 4.0704,-7.296 0.6144,0 1.0368,0.6144 1.0368,1.5744 0,1.92 -1.1136,3.1488 -5.1072,5.7216 z"
     style="font-style:italic;font-weight:bold;font-size:38.4px;line-height:1.25;font-family:'URW Chancery L';-inkscape-font-specification:'URW Chancery L Bold Italic'"
     id="path68" /></g>

<g
   aria-label="r"
   transform="scale(-1)"
   id="text3031-0"
   style="line-height:0%;font-family:'Bitstream Vera Sans';letter-spacing:0px;word-spacing:0px"><path
     d="m -161.90357,-121.59039 2.9568,-1.1136 2.88,-10.944 c 1.3056,-0.9984 2.1888,-1.344 3.2256,-1.344 0.8448,0 1.344,0.3072 2.0352,1.1904 l 1.152,-3.648 c -0.6912,-0.2304 -1.0368,-0.3072 -1.4208,-0.3072 -0.7296,0 -1.4976,0.3456 -2.5344,1.0752 -0.4992,0.384 -0.9984,0.768 -1.536,1.1136 -0.2304,0.192 -0.4992,0.384 -0.7296,0.5376 l 0.4608,-2.304 c 0,-0.2304 -0.2304,-0.4224 -0.4992,-0.4224 -0.4992,0 -3.8784,1.6512 -6.2208,3.0336 l -0.1152,1.0368 c 2.2272,-1.0752 2.2656,-1.1136 2.7648,-1.1136 0.4992,0 0.7296,0.2688 0.7296,0.8064 0,0.5376 -0.384,2.304 -0.8448,3.9936 z"
     style="font-style:italic;font-weight:bold;font-size:38.4px;line-height:1.25;font-family:'URW Chancery L';-inkscape-font-specification:'URW Chancery L Bold Italic'"
     id="path71" /></g>

</svg>
