<?xml version="1.0" encoding="UTF-8" standalone="no"?>
<!-- http://code.google.com/p/vector-playing-cards/ -->

<svg
   width="167.0869141pt"
   height="242.6669922pt"
   viewBox="0 0 167.0869141 242.6669922"
   xml:space="preserve"
   id="svg2"
   version="1.1"
   inkscape:version="0.48.0 r9654"
   sodipodi:docname="hearts8.svg"
   inkscape:export-filename="/home/byron/art/cards/final/PNGs/8_of_hearts.png"
   inkscape:export-xdpi="215.44792"
   inkscape:export-ydpi="215.44792"
   xmlns:inkscape="http://www.inkscape.org/namespaces/inkscape"
   xmlns:sodipodi="http://sodipodi.sourceforge.net/DTD/sodipodi-0.dtd"
   xmlns:xlink="http://www.w3.org/1999/xlink"
   xmlns="http://www.w3.org/2000/svg"
   xmlns:svg="http://www.w3.org/2000/svg"
   xmlns:rdf="http://www.w3.org/1999/02/22-rdf-syntax-ns#"
   xmlns:cc="http://creativecommons.org/ns#"
   xmlns:dc="http://purl.org/dc/elements/1.1/"><metadata
   id="metadata43"><rdf:RDF><cc:Work
       rdf:about=""><dc:format>image/svg+xml</dc:format><dc:type
         rdf:resource="http://purl.org/dc/dcmitype/StillImage" /><dc:title /></cc:Work></rdf:RDF></metadata><defs
   id="defs41"><radialGradient
     inkscape:collect="always"
     xlink:href="#linearGradient3773"
     id="radialGradient3781"
     cx="-0.15782039"
     cy="-8.8345356"
     fx="-0.15782039"
     fy="-8.8345356"
     r="7.9997029"
     gradientTransform="matrix(-1.5842693,-0.02349808,0.03071979,-2.4775745,-0.24856378,-26.713507)"
     gradientUnits="userSpaceOnUse" /><linearGradient
     id="linearGradient3773"><stop
       style="stop-color:#000000;stop-opacity:1;"
       offset="0"
       id="stop3775" /><stop
       style="stop-color:#000000;stop-opacity:0.64885497;"
       offset="1"
       id="stop3777" /></linearGradient><radialGradient
     inkscape:collect="always"
     xlink:href="#linearGradient3773"
     id="radialGradient3957"
     cx="-0.15782039"
     cy="-8.8345356"
     fx="-0.15782039"
     fy="-8.8345356"
     r="7.9997029"
     gradientTransform="matrix(-1.5842693,-0.02349808,0.03071979,-2.4775745,-0.24856378,-26.713507)"
     gradientUnits="userSpaceOnUse" /><linearGradient
     id="linearGradient3959"><stop
       style="stop-color:#000000;stop-opacity:1;"
       offset="0"
       id="stop3961" /><stop
       style="stop-color:#000000;stop-opacity:0.64885497;"
       offset="1"
       id="stop3963" /></linearGradient><radialGradient
     r="81.902771"
     fy="509.47577"
     fx="168.02475"
     cy="509.47577"
     cx="168.02475"
     gradientTransform="matrix(1.2565605,-0.77740644,0.33663816,0.5361257,-221.20213,359.24256)"
     gradientUnits="userSpaceOnUse"
     id="radialGradient3975"
     xlink:href="#linearGradient3784-4"
     inkscape:collect="always" /><linearGradient
     id="linearGradient3784-4"><stop
       style="stop-color:#ffffff;stop-opacity:0.4351145;"
       offset="0"
       id="stop3786-8" /><stop
       style="stop-color:#000000;stop-opacity:0;"
       offset="1"
       id="stop3788-6" /></linearGradient><radialGradient
     inkscape:collect="always"
     xlink:href="#linearGradient3784-4-5"
     id="radialGradient3929"
     gradientUnits="userSpaceOnUse"
     gradientTransform="matrix(1.2565605,-0.77740644,0.33663816,0.5361257,-221.20213,359.24256)"
     cx="168.02475"
     cy="509.47577"
     fx="168.02475"
     fy="509.47577"
     r="81.902771" /><linearGradient
     id="linearGradient3784-4-5"><stop
       style="stop-color:#ffffff;stop-opacity:0.48854962;"
       offset="0"
       id="stop3786-8-0" /><stop
       style="stop-color:#000000;stop-opacity:0;"
       offset="1"
       id="stop3788-6-3" /></linearGradient><radialGradient
     inkscape:collect="always"
     xlink:href="#linearGradient3784-4-1"
     id="radialGradient3927"
     gradientUnits="userSpaceOnUse"
     gradientTransform="matrix(1.2565605,-0.77740644,0.33663816,0.5361257,-221.20213,359.24256)"
     cx="168.02475"
     cy="509.47577"
     fx="168.02475"
     fy="509.47577"
     r="81.902771" /><linearGradient
     id="linearGradient3784-4-1"><stop
       style="stop-color:#ffffff;stop-opacity:0.23664123;"
       offset="0"
       id="stop3786-8-03" /><stop
       style="stop-color:#000000;stop-opacity:0;"
       offset="1"
       id="stop3788-6-6" /></linearGradient><radialGradient
     inkscape:collect="always"
     xlink:href="#linearGradient3768"
     id="radialGradient3776"
     cx="-0.20602037"
     cy="-4.5786963"
     fx="-0.20602037"
     fy="-4.5786963"
     r="8"
     gradientTransform="matrix(-1,0,0,-1.7201755,-0.41204074,-13.027194)"
     gradientUnits="userSpaceOnUse" /><linearGradient
     id="linearGradient3768"><stop
       style="stop-color:#df0000;stop-opacity:1;"
       offset="0"
       id="stop3770" /><stop
       style="stop-color:#df0000;stop-opacity:0.67175573;"
       offset="1"
       id="stop3772" /></linearGradient><radialGradient
     r="81.902771"
     fy="511.22299"
     fx="171.48665"
     cy="511.22299"
     cx="171.48665"
     gradientTransform="matrix(1.1529891,-0.67391547,0.39482025,0.67549043,-233.63262,270.40076)"
     gradientUnits="userSpaceOnUse"
     id="radialGradient4013"
     xlink:href="#linearGradient3784-4-6"
     inkscape:collect="always" /><linearGradient
     id="linearGradient3784-4-6"><stop
       style="stop-color:#ffffff;stop-opacity:0.31297711;"
       offset="0"
       id="stop3786-8-8" /><stop
       style="stop-color:#000000;stop-opacity:0;"
       offset="1"
       id="stop3788-6-8" /></linearGradient><radialGradient
     r="81.902771"
     fy="492.63205"
     fx="159.35434"
     cy="492.63205"
     cx="159.35434"
     gradientTransform="matrix(1.0894779,-0.71513803,0.44645273,0.65626582,-244.93331,290.9185)"
     gradientUnits="userSpaceOnUse"
     id="radialGradient4013-8"
     xlink:href="#linearGradient3784-4-2"
     inkscape:collect="always" /><linearGradient
     id="linearGradient3784-4-2"><stop
       style="stop-color:#ffffff;stop-opacity:0.29007635;"
       offset="0"
       id="stop3786-8-1" /><stop
       style="stop-color:#000000;stop-opacity:0;"
       offset="1"
       id="stop3788-6-5" /></linearGradient><radialGradient
     r="81.902771"
     fy="492.63205"
     fx="159.35434"
     cy="492.63205"
     cx="159.35434"
     gradientTransform="matrix(1.0894779,-0.71513803,0.44645273,0.65626582,-244.93331,290.9185)"
     gradientUnits="userSpaceOnUse"
     id="radialGradient3073"
     xlink:href="#linearGradient3784-4-2"
     inkscape:collect="always" /></defs><sodipodi:namedview
   pagecolor="#ffffff"
   bordercolor="#666666"
   borderopacity="1"
   objecttolerance="10"
   gridtolerance="10"
   guidetolerance="10"
   inkscape:pageopacity="0"
   inkscape:pageshadow="2"
   inkscape:window-width="1680"
   inkscape:window-height="977"
   id="namedview39"
   showgrid="false"
   inkscape:zoom="1.7208768"
   inkscape:cx="-28.405554"
   inkscape:cy="147.27218"
   inkscape:window-x="0"
   inkscape:window-y="25"
   inkscape:window-maximized="1"
   inkscape:current-layer="svg2"
   inkscape:pagecheckerboard="0"
   inkscape:document-units="pt" />
	<g
   id="Layer_x0020_1"
   style="clip-rule:nonzero;fill-rule:nonzero;stroke:#000000;stroke-miterlimit:4">
		<path
   style="fill:#ffffff;stroke-width:0.5"
   d="m 166.83691,235.54785 c 0,3.77735 -3.08691,6.86914 -6.87109,6.86914 H 7.1108398 C 3.3359375,242.41699 0.25,239.3252 0.25,235.54785 V 7.1201172 C 0.25,3.3427734 3.3359375,0.25 7.1108398,0.25 H 159.96582 c 3.78418,0 6.87109,3.0927734 6.87109,6.8701172 z"
   id="path5" />
		<g
   style="stroke:none"
   id="g7">
			<g
   id="g9">
				
			</g>
			
		</g>
		<g
   id="g15">
			
		</g>
		<g
   id="g19">
			
		</g>
		<g
   style="stroke:none"
   id="g23">
			<g
   id="g25">
				
			</g>
			
		</g>
		<g
   style="stroke:none"
   id="g31">
			<g
   id="g33">
				
			</g>
			
		</g>
	</g>



<g
   aria-label="8"
   id="text3788"
   style="line-height:0%;font-family:'Bitstream Vera Sans';letter-spacing:0px;word-spacing:0px;fill:#df0000"><path
     d="m 14.431675,15.591413 q -1.75,-0.640625 -2.59375,-1.828125 -0.84375,-1.1875 -0.84375,-2.84375 0,-2.4999995 1.796875,-4.2031245 1.796875,-1.703125 4.78125,-1.703125 3,0 4.828125,1.75 1.828125,1.734375 1.828125,4.2343745 0,1.59375 -0.84375,2.78125 -0.828125,1.171875 -2.53125,1.8125 2.109375,0.6875 3.203125,2.21875 1.109375,1.53125 1.109375,3.65625 0,2.9375 -2.078125,4.9375 -2.078125,2 -5.46875,2 -3.390625,0 -5.46875,-2 -2.078125,-2.015625 -2.078125,-5.015625 0,-2.234375 1.125,-3.734375 1.140625,-1.515625 3.234375,-2.0625 z m -0.5625,-4.765625 q 0,1.625 1.046875,2.65625 1.046875,1.03125 2.71875,1.03125 1.625,0 2.65625,-1.015625 1.046875,-1.03125 1.046875,-2.515625 0,-1.5468745 -1.078125,-2.5937495 -1.0625,-1.0625 -2.65625,-1.0625 -1.609375,0 -2.671875,1.03125 -1.0625,1.03125 -1.0625,2.4687495 z m -0.90625,10.578125 q 0,1.203125 0.5625,2.328125 0.578125,1.125 1.703125,1.75 1.125,0.609375 2.421875,0.609375 2.015625,0 3.328125,-1.296875 1.3125,-1.296875 1.3125,-3.296875 0,-2.03125 -1.359375,-3.359375 -1.34375,-1.328125 -3.375,-1.328125 -1.984375,0 -3.296875,1.3125 -1.296875,1.3125 -1.296875,3.28125 z"
     style="font-size:32px;line-height:1.25;font-family:Arial;-inkscape-font-specification:Arial"
     id="path73" /></g>










<g
   transform="matrix(1.6743072,0,0,1.5669921,17.177511,46.385321)"
   id="layer1-9-6"
   style="fill:#df0000;fill-opacity:1"><path
     style="fill:#df0000;fill-opacity:1"
     inkscape:connector-curvature="0"
     id="hl-8"
     d="M 3.676,-9 C 0.433,-9 0,-5.523 0,-5.523 0,-5.523 -0.433,-9 -3.676,-9 -5.946,-9 -8,-7.441 -8,-4.5 -8,-0.614 -1.4208493,3.2938141 0,9 1.35201,3.2985969 8,-0.614 8,-4.5 8,-7.441 5.946,-9 3.676,-9 Z"
     sodipodi:nodetypes="scsscss" /></g><g
   aria-label="8"
   transform="scale(-1)"
   id="text3788-4"
   style="line-height:0%;font-family:'Bitstream Vera Sans';letter-spacing:0px;word-spacing:0px;fill:#df0000"><path
     d="m -153.16136,-225.93704 q -1.75,-0.64063 -2.59375,-1.82813 -0.84375,-1.1875 -0.84375,-2.84375 0,-2.5 1.79687,-4.20312 1.79688,-1.70313 4.78125,-1.70313 3,0 4.82813,1.75 1.82812,1.73438 1.82812,4.23438 0,1.59375 -0.84375,2.78125 -0.82812,1.17187 -2.53125,1.8125 2.10938,0.6875 3.20313,2.21875 1.10937,1.53125 1.10937,3.65625 0,2.9375 -2.07812,4.9375 -2.07813,2 -5.46875,2 -3.39063,0 -5.46875,-2 -2.07813,-2.01563 -2.07813,-5.01563 0,-2.23437 1.125,-3.73437 1.14063,-1.51563 3.23438,-2.0625 z m -0.5625,-4.76563 q 0,1.625 1.04687,2.65625 1.04688,1.03125 2.71875,1.03125 1.625,0 2.65625,-1.01562 1.04688,-1.03125 1.04688,-2.51563 0,-1.54687 -1.07813,-2.59375 -1.0625,-1.0625 -2.65625,-1.0625 -1.60937,0 -2.67187,1.03125 -1.0625,1.03125 -1.0625,2.46875 z m -0.90625,10.57813 q 0,1.20312 0.5625,2.32812 0.57812,1.125 1.70312,1.75 1.125,0.60938 2.42188,0.60938 2.01562,0 3.32812,-1.29688 1.3125,-1.29687 1.3125,-3.29687 0,-2.03125 -1.35937,-3.35938 -1.34375,-1.32812 -3.375,-1.32812 -1.98438,0 -3.29688,1.3125 -1.29687,1.3125 -1.29687,3.28125 z"
     style="font-size:32px;line-height:1.25;font-family:Arial;-inkscape-font-specification:Arial"
     id="path76" /></g>









<g
   transform="matrix(-1.6743072,0,0,-1.5669921,150.15601,195.14313)"
   id="layer1-9-6-5"
   style="fill:#df0000;fill-opacity:1"><path
     style="fill:#df0000;fill-opacity:1"
     inkscape:connector-curvature="0"
     id="hl-8-1"
     d="M 3.676,-9 C 0.433,-9 0,-5.523 0,-5.523 0,-5.523 -0.433,-9 -3.676,-9 -5.946,-9 -8,-7.441 -8,-4.5 -8,-0.614 -1.4208493,3.2938141 0,9 1.35201,3.2985969 8,-0.614 8,-4.5 8,-7.441 5.946,-9 3.676,-9 Z"
     sodipodi:nodetypes="scsscss" /></g><g
   transform="matrix(2.7790082,0,0,2.600887,54.512268,31.603768)"
   id="layer1-9-6-8"
   style="fill:#df0000;fill-opacity:1"><path
     style="fill:#df0000;fill-opacity:1"
     inkscape:connector-curvature="0"
     id="hl-8-8"
     d="M 3.676,-9 C 0.433,-9 0,-5.523 0,-5.523 0,-5.523 -0.433,-9 -3.676,-9 -5.946,-9 -8,-7.441 -8,-4.5 -8,-0.614 -1.4208493,3.2938141 0,9 1.35201,3.2985969 8,-0.614 8,-4.5 8,-7.441 5.946,-9 3.676,-9 Z"
     sodipodi:nodetypes="scsscss" /></g><g
   transform="matrix(-2.7790082,0,0,-2.600887,54.512268,208.00617)"
   id="layer1-9-6-8-9"
   style="fill:#df0000;fill-opacity:1"><path
     style="fill:#df0000;fill-opacity:1"
     inkscape:connector-curvature="0"
     id="hl-8-8-5"
     d="M 3.676,-9 C 0.433,-9 0,-5.523 0,-5.523 0,-5.523 -0.433,-9 -3.676,-9 -5.946,-9 -8,-7.441 -8,-4.5 -8,-0.614 -1.4208493,3.2938141 0,9 1.35201,3.2985969 8,-0.614 8,-4.5 8,-7.441 5.946,-9 3.676,-9 Z"
     sodipodi:nodetypes="scsscss" /></g><g
   transform="matrix(2.7790082,0,0,2.600887,54.512268,125.30457)"
   id="layer1-9-6-8-8"
   style="fill:#df0000;fill-opacity:1"><path
     style="fill:#df0000;fill-opacity:1"
     inkscape:connector-curvature="0"
     id="hl-8-8-8"
     d="M 3.676,-9 C 0.433,-9 0,-5.523 0,-5.523 0,-5.523 -0.433,-9 -3.676,-9 -5.946,-9 -8,-7.441 -8,-4.5 -8,-0.614 -1.4208493,3.2938141 0,9 1.35201,3.2985969 8,-0.614 8,-4.5 8,-7.441 5.946,-9 3.676,-9 Z"
     sodipodi:nodetypes="scsscss" /></g><g
   transform="matrix(2.7790082,0,0,2.600887,112.2504,31.272778)"
   id="layer1-9-6-8-88"
   style="fill:#df0000;fill-opacity:1"><path
     style="fill:#df0000;fill-opacity:1"
     inkscape:connector-curvature="0"
     id="hl-8-8-4"
     d="M 3.676,-9 C 0.433,-9 0,-5.523 0,-5.523 0,-5.523 -0.433,-9 -3.676,-9 -5.946,-9 -8,-7.441 -8,-4.5 -8,-0.614 -1.4208493,3.2938141 0,9 1.35201,3.2985969 8,-0.614 8,-4.5 8,-7.441 5.946,-9 3.676,-9 Z"
     sodipodi:nodetypes="scsscss" /></g><g
   transform="matrix(-2.7790082,0,0,-2.600887,112.2504,209.27518)"
   id="layer1-9-6-8-9-3"
   style="fill:#df0000;fill-opacity:1"><path
     style="fill:#df0000;fill-opacity:1"
     inkscape:connector-curvature="0"
     id="hl-8-8-5-1"
     d="M 3.676,-9 C 0.433,-9 0,-5.523 0,-5.523 0,-5.523 -0.433,-9 -3.676,-9 -5.946,-9 -8,-7.441 -8,-4.5 -8,-0.614 -1.4208493,3.2938141 0,9 1.35201,3.2985969 8,-0.614 8,-4.5 8,-7.441 5.946,-9 3.676,-9 Z"
     sodipodi:nodetypes="scsscss" /></g><g
   transform="matrix(2.7790082,0,0,2.600887,112.2504,124.97358)"
   id="layer1-9-6-8-8-4"
   style="fill:#df0000;fill-opacity:1"><path
     style="fill:#df0000;fill-opacity:1"
     inkscape:connector-curvature="0"
     id="hl-8-8-8-9"
     d="M 3.676,-9 C 0.433,-9 0,-5.523 0,-5.523 0,-5.523 -0.433,-9 -3.676,-9 -5.946,-9 -8,-7.441 -8,-4.5 -8,-0.614 -1.4208493,3.2938141 0,9 1.35201,3.2985969 8,-0.614 8,-4.5 8,-7.441 5.946,-9 3.676,-9 Z"
     sodipodi:nodetypes="scsscss" /></g><g
   transform="matrix(2.7790082,0,0,2.600887,83.678269,76.705082)"
   id="layer1-9-6-8-884"
   style="fill:#df0000;fill-opacity:1"><path
     style="fill:#df0000;fill-opacity:1"
     inkscape:connector-curvature="0"
     id="hl-8-8-3"
     d="M 3.676,-9 C 0.433,-9 0,-5.523 0,-5.523 0,-5.523 -0.433,-9 -3.676,-9 -5.946,-9 -8,-7.441 -8,-4.5 -8,-0.614 -1.4208493,3.2938141 0,9 1.35201,3.2985969 8,-0.614 8,-4.5 8,-7.441 5.946,-9 3.676,-9 Z"
     sodipodi:nodetypes="scsscss" /></g><g
   transform="matrix(-2.7790082,0,0,-2.600887,83.213395,162.70775)"
   id="layer1-9-6-8-884-8"
   style="fill:#df0000;fill-opacity:1"><path
     style="fill:#df0000;fill-opacity:1"
     inkscape:connector-curvature="0"
     id="hl-8-8-3-8"
     d="M 3.676,-9 C 0.433,-9 0,-5.523 0,-5.523 0,-5.523 -0.433,-9 -3.676,-9 -5.946,-9 -8,-7.441 -8,-4.5 -8,-0.614 -1.4208493,3.2938141 0,9 1.35201,3.2985969 8,-0.614 8,-4.5 8,-7.441 5.946,-9 3.676,-9 Z"
     sodipodi:nodetypes="scsscss" /></g></svg>
