<?xml version="1.0" encoding="UTF-8" standalone="no"?>
<!-- http://code.google.com/p/vector-playing-cards/ -->

<svg
   width="167.0869141pt"
   height="242.6669922pt"
   viewBox="0 0 167.0869141 242.6669922"
   xml:space="preserve"
   id="svg2"
   version="1.1"
   inkscape:version="0.48.0 r9654"
   sodipodi:docname="spades2.svg"
   inkscape:export-filename="/home/byron/art/cards/final/PNGs/2_of_spades.png"
   inkscape:export-xdpi="215.44792"
   inkscape:export-ydpi="215.44792"
   xmlns:inkscape="http://www.inkscape.org/namespaces/inkscape"
   xmlns:sodipodi="http://sodipodi.sourceforge.net/DTD/sodipodi-0.dtd"
   xmlns="http://www.w3.org/2000/svg"
   xmlns:svg="http://www.w3.org/2000/svg"
   xmlns:rdf="http://www.w3.org/1999/02/22-rdf-syntax-ns#"
   xmlns:cc="http://creativecommons.org/ns#"
   xmlns:dc="http://purl.org/dc/elements/1.1/"><metadata
   id="metadata43"><rdf:RDF><cc:Work
       rdf:about=""><dc:format>image/svg+xml</dc:format><dc:type
         rdf:resource="http://purl.org/dc/dcmitype/StillImage" /><dc:title /></cc:Work></rdf:RDF></metadata><defs
   id="defs41" /><sodipodi:namedview
   pagecolor="#ffffff"
   bordercolor="#666666"
   borderopacity="1"
   objecttolerance="10"
   gridtolerance="10"
   guidetolerance="10"
   inkscape:pageopacity="0"
   inkscape:pageshadow="2"
   inkscape:window-width="1680"
   inkscape:window-height="977"
   id="namedview39"
   showgrid="false"
   inkscape:zoom="2.4336873"
   inkscape:cx="106.02254"
   inkscape:cy="157.08206"
   inkscape:window-x="0"
   inkscape:window-y="25"
   inkscape:window-maximized="1"
   inkscape:current-layer="svg2"
   inkscape:pagecheckerboard="0"
   inkscape:document-units="pt" />
	<g
   id="Layer_x0020_1"
   style="clip-rule:nonzero;fill-rule:nonzero;stroke:#000000;stroke-miterlimit:4">
		<path
   style="fill:#ffffff;stroke-width:0.5"
   d="m 166.83691,235.54785 c 0,3.77735 -3.08691,6.86914 -6.87109,6.86914 H 7.1108398 C 3.3359375,242.41699 0.25,239.3252 0.25,235.54785 V 7.1201172 C 0.25,3.3427734 3.3359375,0.25 7.1108398,0.25 H 159.96582 c 3.78418,0 6.87109,3.0927734 6.87109,6.8701172 z"
   id="path5" />
		<g
   style="stroke:none"
   id="g7">
			<g
   id="g9">
				
			</g>
			
		</g>
		<g
   id="g15">
			
		</g>
		<g
   id="g19">
			
		</g>
		<g
   style="stroke:none"
   id="g23">
			<g
   id="g25">
				
			</g>
			
		</g>
		<g
   style="stroke:none"
   id="g31">
			<g
   id="g33">
				
			</g>
			
		</g>
	</g>
<g
   aria-label="2"
   id="text3788"
   style="line-height:0%;font-family:'Bitstream Vera Sans';letter-spacing:0px;word-spacing:0px"><path
     d="m 24.656076,25.310163 v 2.703125 H 9.5154514 q -0.03125,-1.015625 0.328125,-1.953125 0.5781246,-1.546875 1.8437496,-3.046875 1.28125,-1.5 3.6875,-3.46875 3.734375,-3.0625 5.046875,-4.84375 1.3125,-1.796875 1.3125,-3.390625 0,-1.6718745 -1.203125,-2.8124995 -1.1875,-1.15625 -3.109375,-1.15625 -2.03125,0 -3.25,1.21875 -1.21875,1.21875 -1.234375,3.3749995 l -2.890625,-0.296875 q 0.296875,-3.2343745 2.234375,-4.9218745 1.9375,-1.703125 5.203125,-1.703125 3.296875,0 5.21875,1.828125 1.921875,1.828125 1.921875,4.5312495 0,1.375 -0.5625,2.703125 -0.5625,1.328125 -1.875,2.796875 -1.296875,1.46875 -4.328125,4.03125 -2.53125,2.125 -3.25,2.890625 -0.71875,0.75 -1.1875,1.515625 z"
     style="font-size:32px;line-height:1.25;font-family:Arial;-inkscape-font-specification:Arial"
     id="path28" /></g>


<g
   transform="matrix(1.5085945,0,0,1.3793253,16.929041,45.065897)"
   id="layer1-7"><path
     id="sl"
     d="M 7.989,3.103 C 7.747,-0.954 0.242,-8.59 0,-10.5 c -0.242,1.909 -7.747,9.545 -7.989,13.603 -0.169,2.868 1.695,4.057 3.39,4.057 1.8351685,-0.021581 3.3508701,-2.8006944 3.873,-3.341 0.242,0.716 -1.603,6.682 -2.179,6.682 H 2.906 C 2.33,10.501 0.485,4.535 0.727,3.819 1.1841472,4.3152961 2.5241276,7.0768295 4.601,7.16 6.295,7.159 8.158,5.971 7.989,3.103 Z"
     inkscape:connector-curvature="0"
     style="fill:#000000"
     sodipodi:nodetypes="cccccccccc" /></g>
<g
   transform="matrix(2.6486789,0,0,2.4217176,83.41089,57.365995)"
   id="layer1-7-88"><path
     id="sl-4"
     d="M 7.989,3.103 C 7.747,-0.954 0.242,-8.59 0,-10.5 c -0.242,1.909 -7.747,9.545 -7.989,13.603 -0.169,2.868 1.695,4.057 3.39,4.057 1.8351685,-0.021581 3.3508701,-2.8006944 3.873,-3.341 0.242,0.716 -1.603,6.682 -2.179,6.682 H 2.906 C 2.33,10.501 0.485,4.535 0.727,3.819 1.1841472,4.3152961 2.5241276,7.0768295 4.601,7.16 6.295,7.159 8.158,5.971 7.989,3.103 Z"
     inkscape:connector-curvature="0"
     style="fill:#000000"
     sodipodi:nodetypes="cccccccccc" /></g><g
   aria-label="2"
   transform="scale(-1)"
   id="text3788-7"
   style="line-height:0%;font-family:'Bitstream Vera Sans';letter-spacing:0px;word-spacing:0px"><path
     d="m -142.86838,-217.82715 v 2.70313 H -158.009 q -0.0312,-1.01563 0.32812,-1.95313 0.57813,-1.54687 1.84375,-3.04687 1.28125,-1.5 3.6875,-3.46875 3.73438,-3.0625 5.04688,-4.84375 1.3125,-1.79688 1.3125,-3.39063 0,-1.67187 -1.20313,-2.8125 -1.1875,-1.15625 -3.10937,-1.15625 -2.03125,0 -3.25,1.21875 -1.21875,1.21875 -1.23438,3.375 l -2.89062,-0.29687 q 0.29687,-3.23438 2.23437,-4.92188 1.9375,-1.70312 5.20313,-1.70312 3.29687,0 5.21875,1.82812 1.92187,1.82813 1.92187,4.53125 0,1.375 -0.5625,2.70313 -0.5625,1.32812 -1.875,2.79687 -1.29687,1.46875 -4.32812,4.03125 -2.53125,2.125 -3.25,2.89063 -0.71875,0.75 -1.1875,1.51562 z"
     style="font-size:32px;line-height:1.25;font-family:Arial;-inkscape-font-specification:Arial"
     id="path31" /></g>

<g
   transform="matrix(-1.5085945,0,0,-1.3793253,150.22511,198.04408)"
   id="layer1-7-3"><path
     id="sl-1"
     d="M 7.989,3.103 C 7.747,-0.954 0.242,-8.59 0,-10.5 c -0.242,1.909 -7.747,9.545 -7.989,13.603 -0.169,2.868 1.695,4.057 3.39,4.057 1.8351685,-0.021581 3.3508701,-2.8006944 3.873,-3.341 0.242,0.716 -1.603,6.682 -2.179,6.682 H 2.906 C 2.33,10.501 0.485,4.535 0.727,3.819 1.1841472,4.3152961 2.5241276,7.0768295 4.601,7.16 6.295,7.159 8.158,5.971 7.989,3.103 Z"
     inkscape:connector-curvature="0"
     style="fill:#000000"
     sodipodi:nodetypes="cccccccccc" /></g><g
   transform="matrix(-2.6486789,0,0,-2.4217176,83.45613,185.77132)"
   id="layer1-7-88-7"><path
     id="sl-4-5"
     d="M 7.989,3.103 C 7.747,-0.954 0.242,-8.59 0,-10.5 c -0.242,1.909 -7.747,9.545 -7.989,13.603 -0.169,2.868 1.695,4.057 3.39,4.057 1.8351685,-0.021581 3.3508701,-2.8006944 3.873,-3.341 0.242,0.716 -1.603,6.682 -2.179,6.682 H 2.906 C 2.33,10.501 0.485,4.535 0.727,3.819 1.1841472,4.3152961 2.5241276,7.0768295 4.601,7.16 6.295,7.159 8.158,5.971 7.989,3.103 Z"
     inkscape:connector-curvature="0"
     style="fill:#000000"
     sodipodi:nodetypes="cccccccccc" /></g></svg>
